<?xml version="1.0" encoding="UTF-8"?>
<!DOCTYPE svg PUBLIC "-//W3C//DTD SVG 1.1//EN" "http://www.w3.org/Graphics/SVG/1.1/DTD/svg11.dtd">
<svg xmlns="http://www.w3.org/2000/svg" version="1.1" width="512px" height="512px" style="shape-rendering:geometricPrecision; text-rendering:geometricPrecision; image-rendering:optimizeQuality; fill-rule:evenodd; clip-rule:evenodd" xmlns:xlink="http://www.w3.org/1999/xlink">
<g><path style="opacity:0.998" fill="#2196f3" d="M 222.5,-0.5 C 301.833,-0.5 381.167,-0.5 460.5,-0.5C 415.312,14.7295 369.979,29.8961 324.5,45C 312.881,50.6194 304.715,59.4528 300,71.5C 298.841,196.958 298.007,322.291 297.5,447.5C 270.79,447.955 244.124,447.455 217.5,446C 190.172,437.339 174.339,418.839 170,390.5C 169.5,352.501 169.333,314.501 169.5,276.5C 186.17,276.667 202.837,276.5 219.5,276C 239.223,273.229 254.723,263.729 266,247.5C 280.958,221.627 279.625,196.627 262,172.5C 251.223,160.193 237.723,152.693 221.5,150C 204.17,149.5 186.837,149.333 169.5,149.5C 169.333,118.498 169.5,87.4982 170,56.5C 175.255,26.0832 192.755,7.08321 222.5,-0.5 Z"/></g>
<g><path style="opacity:0.999" fill="#63b4f6" d="M 460.5,-0.5 C 466.167,-0.5 471.833,-0.5 477.5,-0.5C 494.754,4.4208 506.087,15.4208 511.5,32.5C 511.5,166.833 511.5,301.167 511.5,435.5C 507.808,448.367 500.141,458.201 488.5,465C 442.429,480.635 396.429,496.135 350.5,511.5C 344.167,511.5 337.833,511.5 331.5,511.5C 312.541,506.368 301.375,494.035 298,474.5C 297.5,465.506 297.334,456.506 297.5,447.5C 298.007,322.291 298.841,196.958 300,71.5C 304.715,59.4528 312.881,50.6194 324.5,45C 369.979,29.8961 415.312,14.7295 460.5,-0.5 Z"/></g>
<g><path style="opacity:0.995" fill="#607c8b" d="M -0.5,219.5 C -0.5,215.167 -0.5,210.833 -0.5,206.5C 0.704964,203.766 2.20496,201.099 4,198.5C 33.5,169 63,139.5 92.5,110C 104.239,103.106 114.739,104.606 124,114.5C 125,116.5 126,118.5 127,120.5C 128.427,144.132 128.927,167.799 128.5,191.5C 158.835,191.333 189.168,191.5 219.5,192C 231.206,196.902 236.039,205.735 234,218.5C 231.5,226.333 226.333,231.5 218.5,234C 188.502,234.5 158.502,234.667 128.5,234.5C 128.667,255.836 128.5,277.169 128,298.5C 125.399,314.731 115.899,321.564 99.5,319C 96.0482,318.108 93.0482,316.442 90.5,314C 62,285.5 33.5,257 5,228.5C 2.6258,225.737 0.792465,222.737 -0.5,219.5 Z"/></g>
</svg>
